<?xml version="1.0" standalone="no"?>
<!DOCTYPE svg PUBLIC "-//W3C//DTD SVG 20010904//EN"
 "http://www.w3.org/TR/2001/REC-SVG-20010904/DTD/svg10.dtd">
<svg version="1.0" xmlns="http://www.w3.org/2000/svg"
 width="512.000000pt" height="512.000000pt" viewBox="0 0 512.000000 512.000000"
 preserveAspectRatio="xMidYMid meet">

<g transform="translate(0.000000,512.000000) scale(0.100000,-0.100000)"
fill="#ffffff" stroke="black">
<path d="M3005 5084 c-142 -20 -192 -30 -275 -56 -455 -144 -802 -531 -886
-989 l-17 -89 -221 2 -221 3 -92 289 c-62 195 -100 297 -115 313 -50 54 -40
53 -571 53 l-494 0 -33 -22 c-48 -33 -72 -70 -77 -120 -7 -58 23 -118 74 -149
38 -24 39 -24 452 -29 l415 -5 348 -1094 c191 -602 347 -1095 345 -1095 -1 -1
-33 -17 -72 -36 -287 -143 -408 -514 -263 -805 79 -157 224 -275 393 -320 36
-10 125 -18 221 -22 l161 -6 -67 -33 c-109 -55 -198 -164 -230 -283 -6 -23
-11 -77 -11 -119 1 -216 153 -394 370 -433 187 -33 386 70 470 243 115 237 12
505 -234 610 -38 16 -13 17 585 17 l625 1 -60 -29 c-78 -37 -139 -91 -185
-163 -116 -179 -86 -417 70 -561 140 -130 323 -159 494 -79 205 97 306 343
227 553 -45 118 -140 217 -248 259 l-48 19 113 1 113 0 224 -130 c138 -80 238
-132 263 -136 81 -13 162 48 178 134 9 45 -20 117 -59 146 -18 13 -140 87
-272 163 l-240 138 -1185 5 -1185 5 -57 28 c-177 87 -221 303 -93 455 14 17
53 45 87 61 l61 31 1311 0 c1257 0 1313 1 1352 19 23 10 50 32 61 47 12 16
154 450 318 964 318 1000 312 978 267 1039 -10 14 -34 36 -52 49 -32 22 -38
22 -336 22 l-303 0 -6 38 c-27 162 -92 340 -170 469 -193 318 -502 534 -868
608 -78 15 -294 27 -352 19z m348 -348 c177 -45 323 -129 452 -260 254 -256
345 -630 238 -970 -53 -167 -132 -295 -260 -417 -264 -252 -640 -334 -989
-215 -309 105 -548 371 -631 704 -27 106 -24 342 5 452 74 276 264 511 517
637 96 48 197 77 340 97 66 9 238 -6 328 -28z m-1064 -4161 c59 -51 64 -131
10 -185 -55 -54 -133 -49 -184 12 -19 23 -25 41 -25 80 0 44 4 54 34 84 30 30
40 34 84 34 39 0 57 -6 81 -25z m1492 8 c33 -20 59 -68 59 -110 0 -42 -35 -92
-77 -109 -104 -44 -206 62 -163 167 26 62 118 89 181 52z"/>
<path d="M3043 4460 c-24 -12 -53 -38 -65 -58 -22 -35 -23 -49 -26 -244 l-3
-207 -212 -3 c-238 -3 -244 -5 -288 -81 -41 -73 -10 -174 64 -215 27 -14 65
-18 234 -20 l202 -3 3 -202 c2 -169 6 -207 20 -234 42 -76 147 -105 222 -61
70 41 76 65 76 295 l0 202 208 3 c195 3 209 4 244 26 73 46 99 156 51 221 -48
64 -56 66 -286 71 l-212 5 -5 212 c-5 194 -7 214 -26 239 -52 71 -128 91 -201
54z"/>
</g>
</svg>
