<?xml version="1.0" standalone="no"?>
<!DOCTYPE svg PUBLIC "-//W3C//DTD SVG 20010904//EN"
 "http://www.w3.org/TR/2001/REC-SVG-20010904/DTD/svg10.dtd">
<svg version="1.0" xmlns="http://www.w3.org/2000/svg"
 width="500.000000pt" height="500.000000pt" viewBox="0 0 500.000000 500.000000"
 preserveAspectRatio="xMidYMid meet">

<g transform="translate(0.000000,500.000000) scale(0.100000,-0.100000)"
fill="#000000" stroke="none">
<path d="M2237 4214 c-752 -117 -1342 -712 -1453 -1466 -23 -155 -15 -450 15
-591 150 -694 664 -1208 1361 -1359 93 -20 133 -22 340 -22 207 0 247 2 340
22 630 137 1115 569 1310 1167 67 206 83 330 77 580 -4 161 -10 232 -26 304
-132 592 -524 1054 -1078 1269 -111 44 -279 87 -394 102 -106 14 -389 10 -492
-6z m543 -54 c663 -113 1190 -602 1355 -1260 65 -255 62 -577 -6 -830 -81
-296 -220 -539 -432 -754 -321 -323 -737 -496 -1193 -496 -462 0 -870 168
-1193 491 -320 320 -491 732 -491 1184 0 465 173 879 501 1202 255 250 564
409 914 467 128 22 408 20 545 -4z"/>
<path d="M2375 3804 c-162 -22 -338 -71 -440 -121 -159 -80 -318 -202 -424
-326 -99 -117 -215 -306 -199 -323 3 -3 16 -2 29 1 17 4 35 26 59 73 50 97
135 206 236 302 367 352 912 448 1367 243 110 -50 240 -130 309 -192 54 -49
98 -65 112 -42 7 10 -76 84 -171 153 -129 95 -321 177 -498 213 -77 16 -317
28 -380 19z"/>
<path d="M2391 3609 c-29 -17 -82 -26 -116 -19 -33 7 -56 -3 -70 -30 -11 -21
-23 -30 -40 -30 -48 0 -74 -18 -84 -57 -8 -29 -20 -43 -48 -58 -33 -17 -38
-25 -41 -60 -2 -22 -9 -47 -16 -55 -9 -10 -13 -43 -11 -105 1 -49 3 -93 4 -97
2 -15 60 -6 471 70 402 75 415 79 418 101 2 13 -6 37 -18 53 -12 16 -21 39
-20 51 4 47 -1 58 -34 74 -22 10 -37 26 -41 42 -10 38 -24 51 -57 51 -21 0
-39 10 -59 31 -27 29 -31 30 -81 24 -46 -6 -56 -4 -72 14 -24 26 -42 26 -85 0z
m80 -28 c25 -15 43 -18 80 -14 42 5 48 3 64 -20 12 -19 27 -27 53 -29 32 -3
40 -8 54 -40 10 -21 32 -45 49 -53 26 -14 29 -20 24 -46 -5 -21 -1 -36 14 -55
27 -34 27 -64 2 -64 -15 0 -27 16 -47 60 -31 69 -87 126 -166 167 -49 26 -61
28 -168 28 -105 0 -120 -2 -171 -28 -127 -62 -204 -169 -217 -303 -6 -63 -9
-69 -31 -72 -23 -4 -24 -2 -17 46 4 28 2 62 -4 77 -9 23 -7 32 9 49 11 12 21
39 23 60 2 32 9 43 32 56 31 17 40 29 56 73 8 22 15 27 44 27 28 0 41 7 63 35
27 34 29 35 83 30 44 -5 62 -2 90 14 44 25 43 25 81 2z m88 -106 c82 -29 158
-102 191 -183 7 -18 10 -35 7 -38 -2 -3 -159 -33 -347 -68 l-342 -63 4 66 c16
222 263 367 487 286z"/>
<path d="M2385 3450 c-8 -12 -11 -12 58 -15 32 -2 79 -11 103 -20 47 -18 74
-12 39 8 -57 34 -185 51 -200 27z"/>
<path d="M2615 3390 c-8 -13 3 -30 21 -30 18 0 18 14 0 29 -10 8 -16 9 -21 1z"/>
<path d="M3727 3240 c-47 -9 -54 -16 -39 -40 12 -20 14 -94 3 -143 -6 -28 -8
-26 -70 59 l-65 86 -60 -6 c-71 -7 -86 -18 -67 -47 17 -28 -2 -259 -26 -307
-22 -44 -10 -53 50 -40 44 9 48 12 41 32 -8 25 -6 143 4 181 7 25 10 23 65
-55 90 -125 112 -139 157 -102 19 15 23 35 36 177 11 112 20 165 31 177 16 18
10 39 -10 37 -7 -1 -29 -5 -50 -9z"/>
<path d="M3264 3155 c-95 -19 -95 -18 -88 -69 9 -60 -14 -276 -32 -303 -19
-30 -18 -33 8 -33 35 0 143 21 159 30 11 8 12 13 2 29 -18 28 7 286 30 322 27
41 19 44 -79 24z"/>
<path d="M2883 3086 c-89 -17 -167 -36 -173 -42 -6 -6 -13 -33 -16 -61 -5 -41
-3 -51 11 -56 24 -10 48 7 70 47 10 19 28 37 38 40 18 4 19 1 13 -42 -3 -26
-8 -85 -12 -132 -4 -56 -13 -96 -26 -117 -10 -17 -15 -34 -10 -37 13 -8 176
24 184 37 3 5 1 18 -5 28 -13 21 8 278 24 294 7 7 20 -1 39 -23 41 -50 72 -42
84 20 16 91 17 90 -221 44z"/>
<path d="M2360 2991 c-105 -21 -114 -25 -99 -53 16 -29 -8 -283 -29 -320 -9
-15 -13 -30 -10 -33 9 -9 187 25 194 37 3 5 -1 17 -10 27 -17 19 -20 49 -10
100 6 27 11 32 33 29 24 -3 26 -7 31 -61 8 -84 45 -106 125 -73 50 21 72 76
29 76 -10 0 -14 12 -14 39 0 30 -6 44 -25 59 -25 20 -25 21 -5 27 21 7 50 53
50 79 0 28 -22 64 -47 75 -33 15 -112 12 -213 -8z m108 -89 c4 -40 -12 -62
-45 -62 -19 0 -24 4 -19 16 3 9 6 31 6 50 0 33 2 35 28 32 23 -2 28 -8 30 -36z"/>
<path d="M1984 2921 c-50 -23 -61 -45 -108 -216 -27 -97 -43 -136 -61 -152
-47 -42 -29 -58 47 -42 61 13 77 24 60 41 -14 14 -16 57 -3 77 5 7 27 17 50
21 l41 7 -6 -36 c-4 -20 -13 -43 -20 -52 -8 -8 -14 -19 -14 -22 0 -19 179 9
187 29 3 7 1 20 -4 29 -5 9 -4 63 3 130 6 63 9 127 6 140 -11 61 -97 83 -178
46z m41 -83 c2 -7 1 -38 -3 -68 -7 -54 -8 -55 -44 -61 -43 -7 -44 -5 -23 66
23 75 23 75 45 75 11 0 23 -6 25 -12z"/>
<path d="M1677 2865 c-32 -7 -62 -16 -67 -21 -5 -5 -36 -58 -69 -119 -32 -60
-63 -109 -67 -108 -4 1 -28 41 -53 90 l-46 88 -64 -2 c-75 -2 -88 -11 -73 -50
14 -35 -7 -286 -26 -305 -7 -7 -12 -20 -12 -31 0 -19 18 -19 83 -1 19 6 22 25
7 40 -11 11 -2 164 10 164 3 0 21 -31 39 -68 69 -142 87 -144 158 -14 26 48
55 101 66 117 l18 30 -7 -80 c-3 -45 -12 -87 -20 -96 -22 -24 -17 -39 14 -39
31 1 151 25 158 33 3 3 0 15 -6 27 -15 28 6 275 26 307 17 28 18 53 2 52 -7
-1 -39 -7 -71 -14z"/>
<path d="M3562 2739 c-108 -20 -181 -104 -197 -225 -14 -103 28 -172 109 -181
148 -17 269 98 270 257 1 118 -63 171 -182 149z m32 -164 c0 -107 -15 -169
-43 -184 -41 -22 -52 16 -39 139 10 109 29 153 61 148 21 -3 22 -7 21 -103z"/>
<path d="M3047 2640 c-53 -11 -102 -22 -107 -25 -6 -4 -7 -23 -4 -44 9 -57
-15 -282 -32 -309 -9 -13 -13 -26 -10 -30 6 -5 155 15 182 25 18 7 18 22 -1
44 -21 23 -11 115 14 122 32 8 41 -4 41 -52 0 -65 20 -91 71 -91 61 0 109 31
109 70 0 4 -9 10 -19 13 -15 4 -20 15 -23 48 -2 33 -8 46 -23 53 -19 8 -19 10
12 41 40 40 43 82 10 121 -31 35 -91 39 -220 14z m92 -72 c9 -24 -5 -78 -19
-78 -5 0 -15 -3 -24 -6 -13 -5 -16 2 -16 43 0 27 3 53 7 56 14 15 44 6 52 -15z"/>
<path d="M2572 2550 c-51 -9 -95 -20 -99 -24 -3 -3 -1 -16 6 -29 14 -28 -10
-293 -30 -325 -7 -12 -11 -24 -7 -27 8 -8 181 24 193 37 7 6 4 14 -8 23 -15
10 -17 24 -15 71 3 58 3 59 33 59 29 0 30 -1 33 -57 3 -63 24 -88 72 -88 62 0
139 74 90 87 -15 4 -20 14 -20 40 0 22 -8 41 -22 56 l-23 22 28 25 c41 36 42
93 3 126 -33 29 -96 31 -234 4z m116 -86 c3 -35 -18 -64 -49 -64 -20 0 -23 16
-13 69 6 27 11 32 33 29 21 -2 27 -9 29 -34z"/>
<path d="M2203 2485 c-67 -13 -127 -26 -133 -30 -7 -4 -6 -13 1 -27 16 -30 -7
-282 -29 -320 -9 -15 -13 -31 -9 -34 7 -8 237 30 295 48 33 10 39 21 44 88 3
31 0 35 -22 38 -20 2 -32 -6 -57 -41 -20 -30 -40 -46 -59 -50 -16 -3 -31 -4
-33 -2 -2 2 0 31 4 64 6 49 10 61 25 61 10 0 20 -7 24 -15 6 -16 41 -21 50 -7
3 5 8 31 12 60 6 44 4 53 -11 59 -13 4 -25 -2 -41 -20 -33 -39 -44 -34 -44 22
0 52 8 61 58 61 19 0 32 -9 44 -30 32 -57 71 -29 66 47 -3 46 -5 48 -33 50
-16 1 -85 -9 -152 -22z"/>
<path d="M1883 2426 c-73 -15 -81 -20 -66 -45 17 -26 -10 -291 -32 -325 -10
-16 -12 -26 -6 -31 10 -6 170 20 179 30 2 2 0 16 -5 30 -13 39 12 291 32 321
8 13 15 26 15 29 0 8 -49 4 -117 -9z"/>
<path d="M1555 2366 c-131 -26 -139 -30 -124 -58 16 -30 -7 -282 -29 -320 -9
-15 -13 -30 -10 -33 9 -9 187 25 194 37 3 5 -1 17 -10 27 -25 28 -18 121 10
121 7 0 18 -9 24 -20 15 -29 48 -25 60 6 6 14 10 48 10 75 0 41 -3 49 -18 49
-10 0 -29 -11 -42 -25 -36 -38 -45 -32 -41 27 3 57 12 68 53 68 20 0 31 -8 43
-30 31 -60 78 -30 73 47 l-3 48 -40 2 c-22 1 -89 -9 -150 -21z"/>
<path d="M3721 2101 c-18 -5 -32 -26 -62 -95 -200 -465 -655 -766 -1156 -766
-350 0 -668 137 -913 392 -53 55 -69 66 -87 62 -13 -4 -23 -10 -23 -14 0 -4
42 -50 94 -102 338 -343 830 -469 1301 -333 331 95 639 353 795 665 33 66 83
191 78 195 -2 1 -14 -1 -27 -4z"/>
<path d="M3307 2044 c-4 -4 -7 -47 -7 -96 0 -72 3 -88 15 -88 10 0 15 10 15
30 0 38 32 41 48 5 13 -29 32 -33 32 -7 -1 9 -13 49 -28 87 -20 51 -33 71 -48
73 -11 2 -23 0 -27 -4z m43 -81 c0 -7 -4 -13 -10 -13 -5 0 -10 12 -10 28 0 21
2 24 10 12 5 -8 10 -21 10 -27z"/>
<path d="M3168 2023 c-10 -2 -18 -5 -18 -6 0 -1 7 -40 15 -87 8 -47 15 -86 15
-87 0 -2 7 -3 16 -3 13 0 15 7 10 35 -8 43 5 45 34 5 12 -16 28 -30 36 -30 19
0 18 7 -6 39 -14 21 -18 37 -14 63 11 65 -20 89 -88 71z m55 -42 c5 -22 0 -31
-20 -31 -7 0 -13 11 -13 25 0 30 25 34 33 6z"/>
<path d="M3063 2003 c-13 -2 -23 -12 -23 -20 0 -30 22 -148 29 -156 10 -11 84
6 89 21 2 8 -8 12 -32 12 -32 0 -36 3 -36 25 0 20 5 25 25 25 16 0 25 6 25 16
0 12 -7 15 -30 12 -19 -3 -31 0 -35 10 -8 21 3 32 31 32 15 0 24 6 24 15 0 15
-19 17 -67 8z"/>
<path d="M2937 1977 c-32 -23 -19 -69 26 -90 25 -13 37 -25 37 -39 0 -17 -4
-20 -30 -14 -22 4 -30 2 -30 -9 0 -20 46 -30 76 -16 41 18 24 101 -21 101 -18
0 -47 29 -40 41 4 5 18 9 31 9 16 0 24 5 22 13 -6 17 -50 20 -71 4z"/>
<path d="M2822 1962 c-9 -6 -12 -33 -10 -95 3 -86 18 -120 28 -62 7 39 37 46
46 11 7 -29 34 -36 34 -8 -1 9 -13 48 -28 87 -27 68 -43 84 -70 67z m38 -79
c0 -7 -4 -13 -10 -13 -5 0 -10 12 -10 28 0 21 2 24 10 12 5 -8 10 -21 10 -27z"/>
<path d="M2698 1939 c-14 -7 -18 -23 -18 -62 0 -55 15 -94 41 -110 22 -14 69
0 69 19 0 12 -6 15 -25 10 -30 -8 -43 13 -47 75 -3 41 -1 44 25 47 15 2 27 9
27 18 0 16 -46 19 -72 3z"/>
<path d="M2500 1815 c0 -78 3 -95 15 -95 10 0 15 10 15 29 0 18 6 31 16 35 9
4 18 5 18 4 1 -2 8 -16 14 -32 9 -21 16 -26 24 -18 8 8 3 33 -17 91 -27 76
-30 81 -57 81 l-28 0 0 -95z m50 13 c0 -10 -4 -18 -10 -18 -5 0 -10 15 -10 33
0 24 3 28 10 17 5 -8 10 -23 10 -32z"/>
<path d="M2358 1883 c-10 -2 -18 -5 -18 -6 0 -1 7 -40 15 -87 8 -47 15 -86 15
-87 0 -10 60 0 78 13 18 12 22 25 22 67 0 73 -17 102 -60 104 -19 0 -43 -1
-52 -4z m66 -40 c16 -56 18 -96 5 -104 -27 -17 -28 -17 -45 84 -5 33 -4 37 14
37 11 0 23 -8 26 -17z"/>
<path d="M2267 1864 c-3 -4 1 -17 9 -30 10 -14 16 -48 17 -84 2 -55 4 -60 24
-60 26 0 38 16 25 33 -11 13 -27 103 -23 130 2 12 -5 17 -22 17 -13 0 -26 -3
-30 -6z"/>
<path d="M2204 1823 l-7 -36 -27 33 c-41 50 -49 34 -32 -70 11 -66 19 -90 30
-90 12 0 14 10 9 53 -7 52 -7 53 21 51 23 -1 28 -6 35 -42 5 -28 13 -42 24
-42 13 0 14 8 8 48 -18 128 -47 172 -61 95z"/>
<path d="M2006 1814 c-30 -30 -11 -133 29 -160 21 -13 28 -14 52 -2 24 11 28
20 31 60 2 25 -4 62 -12 82 -13 32 -19 36 -50 36 -19 0 -42 -7 -50 -16z m79
-81 c7 -48 -3 -70 -29 -60 -21 8 -34 116 -15 128 20 12 35 -12 44 -68z"/>
<path d="M1884 1786 c-13 -21 -14 -33 -4 -81 8 -38 19 -60 33 -70 27 -17 77
-9 77 12 0 11 -7 14 -25 11 -33 -7 -44 9 -47 67 -3 44 -1 49 21 55 40 9 38 30
-3 30 -27 0 -40 -6 -52 -24z"/>
</g>
</svg>
